<?xml version="1.0" standalone="no"?>
<!DOCTYPE svg PUBLIC "-//W3C//DTD SVG 20010904//EN"
 "http://www.w3.org/TR/2001/REC-SVG-20010904/DTD/svg10.dtd">
<svg version="1.0" xmlns="http://www.w3.org/2000/svg"
 width="1080.000000pt" height="1080.000000pt" viewBox="0 0 1080.000000 1080.000000"
 preserveAspectRatio="xMidYMid meet">
<metadata>
Created by potrace 1.14, written by Peter Selinger 2001-2017
</metadata>
<g transform="translate(0.000000,1080.000000) scale(0.100000,-0.100000)"
fill="#000000" stroke="none">
<path d="M1052 9867 c-24 -25 -32 -42 -32 -71 0 -39 17 -68 227 -389 45 -70
83 -130 83 -133 0 -5 -52 -1 -153 11 -15 2 -62 6 -105 10 -42 3 -93 8 -112 10
-19 3 -75 7 -125 11 -323 22 -803 35 -811 23 -2 -4 11 -19 28 -34 18 -15 75
-66 127 -114 52 -47 106 -97 120 -109 193 -174 700 -678 1011 -1003 245 -257
702 -715 815 -816 472 -425 807 -607 1246 -678 l37 -6 -88 -132 c-377 -568
-591 -1153 -627 -1717 -11 -170 -4 -514 11 -539 2 -3 7 -28 10 -56 3 -27 8
-61 11 -75 2 -14 10 -50 16 -80 40 -201 126 -444 225 -642 145 -289 297 -499
549 -758 78 -80 168 -174 201 -210 91 -99 231 -238 314 -310 41 -36 77 -67 80
-70 17 -19 172 -139 260 -202 286 -206 639 -403 980 -548 69 -29 139 -58 155
-66 185 -79 808 -284 822 -270 3 2 -58 37 -134 77 -76 39 -185 99 -242 132
-57 32 -129 73 -160 89 -31 17 -63 37 -72 44 -8 8 -19 14 -22 14 -26 0 -628
391 -686 446 -3 3 15 -2 39 -11 36 -13 113 -34 180 -51 8 -2 43 -10 77 -18 34
-9 75 -18 90 -21 15 -2 39 -7 53 -10 33 -8 58 -13 128 -25 31 -6 66 -12 77
-14 11 -2 47 -7 80 -11 33 -3 79 -10 102 -14 66 -13 132 34 133 92 0 37 -23
80 -52 95 -12 6 -63 26 -112 43 -604 210 -1164 632 -1493 1124 -156 234 -278
534 -317 780 -2 17 -7 48 -11 71 -8 55 -9 225 -1 299 17 156 74 315 160 449
75 117 232 251 371 315 52 25 169 70 195 77 21 5 210 44 240 50 14 3 43 10 65
16 22 5 49 12 59 14 138 26 501 178 646 269 l36 23 125 -60 c68 -33 151 -73
185 -88 58 -27 62 -31 68 -70 3 -22 18 -75 32 -118 114 -341 324 -512 764
-622 63 -15 135 -32 160 -36 25 -4 47 -8 50 -9 17 -5 184 -33 240 -40 49 -7
81 -12 120 -20 14 -3 45 -7 70 -10 25 -3 57 -8 72 -11 15 -3 39 -7 55 -9 28
-4 46 -7 153 -25 30 -5 73 -12 95 -15 43 -7 51 -8 135 -24 30 -6 66 -13 79
-16 77 -15 282 -61 381 -86 63 -16 118 -29 121 -29 6 0 -101 286 -116 310 -9
14 -4 14 156 -21 79 -17 167 -33 196 -36 48 -5 55 -3 83 25 50 51 44 81 -61
288 -252 500 -640 1057 -1043 1498 -44 49 -89 98 -99 110 -21 24 -276 283
-330 335 -60 57 -144 44 -173 -26 -24 -56 -7 -84 134 -223 116 -115 258 -265
373 -395 24 -27 46 -52 49 -55 10 -10 139 -167 217 -265 223 -280 436 -601
607 -913 38 -68 65 -126 62 -129 -5 -6 -34 -1 -191 35 l-80 18 -73 144 c-156
310 -336 606 -479 785 -138 173 -352 396 -483 501 -151 122 -297 217 -466 304
l-91 47 24 29 c71 86 290 431 395 624 57 104 194 379 223 450 15 36 35 83 45
105 126 288 242 635 313 944 20 84 38 155 40 157 9 9 164 17 337 17 182 1 538
-11 549 -17 3 -2 44 -7 91 -10 47 -4 94 -9 105 -11 11 -3 45 -7 75 -10 79 -8
255 -32 375 -51 141 -23 572 -116 730 -158 6 -2 24 -6 40 -11 108 -28 463
-125 477 -130 22 -9 81 11 101 33 21 24 27 82 10 115 -13 26 -125 90 -268 153
-293 128 -400 171 -653 260 -183 64 -591 181 -724 208 -13 3 -88 19 -168 36
-136 29 -307 63 -375 74 -73 12 -95 16 -180 30 -137 23 -148 24 -330 46 -93
11 -178 23 -188 26 -9 3 -24 21 -32 40 -43 103 -181 276 -280 351 -92 70 -247
143 -336 158 -24 4 -53 9 -64 12 -91 20 -316 3 -445 -33 -350 -99 -678 -364
-855 -689 -44 -80 -56 -93 -189 -208 -27 -23 -219 -202 -376 -350 -84 -79
-172 -160 -212 -196 l-27 -24 -48 35 c-510 366 -1115 718 -1683 978 -256 118
-682 279 -970 369 -108 33 -430 118 -515 135 -158 32 -331 64 -375 70 -19 3
-55 7 -80 10 -78 11 -113 15 -175 21 -33 3 -81 8 -106 10 -41 4 -48 2 -77 -28z
m378 -212 c30 -4 145 -24 255 -46 244 -49 203 -40 370 -83 715 -186 1457 -509
2195 -954 163 -98 564 -362 568 -373 2 -5 8 -9 12 -9 5 0 57 -35 116 -77 140
-100 155 -101 250 -17 38 32 77 68 89 79 19 18 211 197 289 269 17 16 58 54
91 85 54 51 186 170 274 246 60 53 72 68 111 145 141 277 418 512 714 606 75
23 92 27 176 40 65 9 181 4 258 -12 210 -43 372 -178 485 -402 28 -58 62 -112
74 -122 12 -9 48 -20 80 -24 32 -4 72 -9 88 -11 17 -2 57 -7 91 -10 33 -3 71
-7 85 -9 83 -13 126 -20 139 -21 14 -1 119 -17 130 -20 3 -1 30 -5 60 -9 30
-5 64 -10 75 -12 11 -2 58 -11 105 -19 126 -22 136 -24 245 -46 55 -12 127
-27 160 -35 33 -8 69 -17 80 -20 85 -20 90 -22 65 -23 -14 0 -54 4 -90 9 -36
5 -99 12 -140 16 -41 3 -78 8 -81 10 -27 16 -696 26 -957 14 l-113 -5 -17 50
c-29 84 -71 146 -157 230 -107 106 -260 186 -399 211 -51 9 -207 6 -261 -5
-243 -48 -479 -226 -658 -496 -26 -38 -51 -74 -55 -80 -8 -9 -127 -118 -247
-225 -27 -25 -57 -52 -65 -60 -8 -8 -55 -51 -105 -95 -49 -44 -95 -84 -101
-90 -6 -5 -44 -40 -85 -76 -41 -37 -86 -77 -100 -90 -30 -28 -174 -158 -239
-217 -25 -22 -70 -63 -100 -91 -30 -28 -58 -51 -61 -51 -3 0 -51 37 -106 83
-451 377 -1043 722 -1648 959 -203 80 -502 181 -680 229 -145 40 -292 78 -319
83 -23 4 -28 6 -156 35 -47 11 -98 22 -115 25 -28 5 -102 20 -150 30 -11 2
-40 7 -65 11 -25 4 -54 9 -65 11 -11 2 -38 7 -60 10 -22 3 -67 10 -99 17 l-60
13 -113 169 c-63 93 -127 191 -144 218 l-30 49 28 -6 c15 -3 53 -8 83 -11z
m2595 -3045 c-3 -5 -12 -10 -18 -10 -7 0 -6 4 3 10 19 12 23 12 15 0z m-225
-101 c41 -34 77 -63 79 -64 2 -2 -44 -64 -101 -137 -190 -242 -383 -519 -465
-668 -17 -30 -46 -82 -65 -115 -33 -59 -97 -188 -136 -275 -93 -210 -150 -385
-198 -612 l-24 -113 5 135 c6 141 7 157 30 305 79 495 298 997 654 1497 72
102 78 108 111 108 28 0 50 -12 110 -61z m2286 -1186 c-2 -2 -32 10 -66 27
-34 17 -60 33 -57 36 2 2 31 24 63 49 l59 44 3 -76 c2 -41 1 -77 -2 -80z
m-2095 -2279 c197 -404 525 -776 934 -1059 100 -69 100 -70 -5 -32 -208 75
-370 146 -397 175 -247 256 -424 528 -536 822 -47 124 -112 348 -75 260 6 -14
41 -89 79 -166z"/>
</g>
</svg>
